{"glyphs":{"0":{"ha":63,"x_min":0,"x_max":0,"o":""},"1":{"ha":63,"x_min":0,"x_max":0,"o":""},"2":{"ha":63,"x_min":0,"x_max":0,"o":""},"3":{"ha":63,"x_min":0,"x_max":0,"o":""},"4":{"ha":63,"x_min":0,"x_max":0,"o":""},"5":{"ha":63,"x_min":0,"x_max":0,"o":""},"6":{"ha":63,"x_min":0,"x_max":0,"o":""},"7":{"ha":63,"x_min":0,"x_max":0,"o":""},"8":{"ha":63,"x_min":0,"x_max":0,"o":""},"9":{"ha":63,"x_min":0,"x_max":0,"o":""}," ":{"ha":694,"x_min":0,"x_max":0,"o":""},"!":{"ha":63,"x_min":0,"x_max":0,"o":""},"\"":{"ha":63,"x_min":0,"x_max":0,"o":""},"#":{"ha":63,"x_min":0,"x_max":0,"o":""},"$":{"ha":63,"x_min":0,"x_max":0,"o":""},"%":{"ha":63,"x_min":0,"x_max":0,"o":""},"&":{"ha":63,"x_min":0,"x_max":0,"o":""},"'":{"ha":63,"x_min":0,"x_max":0,"o":""},"(":{"ha":63,"x_min":0,"x_max":0,"o":""},")":{"ha":63,"x_min":0,"x_max":0,"o":""},"*":{"ha":63,"x_min":0,"x_max":0,"o":""},"+":{"ha":63,"x_min":0,"x_max":0,"o":""},",":{"ha":63,"x_min":0,"x_max":0,"o":""},"-":{"ha":63,"x_min":0,"x_max":0,"o":""},".":{"ha":63,"x_min":0,"x_max":0,"o":""},"/":{"ha":63,"x_min":0,"x_max":0,"o":""},":":{"ha":63,"x_min":0,"x_max":0,"o":""},";":{"ha":63,"x_min":0,"x_max":0,"o":""},"<":{"ha":63,"x_min":0,"x_max":0,"o":""},"=":{"ha":63,"x_min":0,"x_max":0,"o":""},">":{"ha":63,"x_min":0,"x_max":0,"o":""},"?":{"ha":63,"x_min":0,"x_max":0,"o":""},"@":{"ha":63,"x_min":0,"x_max":0,"o":""},"A":{"ha":1638,"x_min":0,"x_max":1708,"o":"m 1708 151 l 697 151 l 697 -271 l 0 424 l 697 1117 l 697 690 l 1708 690 l 1708 151 z "},"B":{"ha":1360,"x_min":61,"x_max":1457,"o":"m 1076 -181 l 361 533 l 61 235 l 61 1217 l 1044 1217 l 743 915 l 1457 200 l 1076 -181 z "},"C":{"ha":1444,"x_min":160,"x_max":1547,"o":"m 1125 -431 l 1125 581 l 1547 581 l 854 1276 l 160 581 l 586 581 l 586 -431 l 1125 -431 z "},"D":{"ha":1471,"x_min":61,"x_max":1456,"o":"m 442 -181 l 1157 533 l 1456 235 l 1456 1217 l 474 1217 l 775 915 l 61 200 l 442 -181 z "},"E":{"ha":1694,"x_min":0,"x_max":1708,"o":"m 0 151 l 1011 151 l 1011 -271 l 1708 424 l 1011 1117 l 1011 690 l 0 690 l 0 151 z "},"F":{"ha":1658,"x_min":250,"x_max":1647,"o":"m 250 835 l 965 121 l 665 -181 l 1647 -181 l 1647 803 l 1346 501 l 631 1217 l 250 835 z "},"G":{"ha":1519,"x_min":160,"x_max":1547,"o":"m 1125 1276 l 1125 265 l 1547 265 l 854 -431 l 160 265 l 586 265 l 586 1276 l 1125 1276 z "},"H":{"ha":1539,"x_min":250,"x_max":1649,"o":"m 1649 835 l 935 121 l 1233 -181 l 250 -181 l 250 803 l 553 501 l 1268 1217 l 1649 835 z "},"I":{"ha":1746,"x_min":-58,"x_max":1815,"o":"m 697 151 l 1708 151 l 1708 690 l 697 690 l 697 1117 l 0 424 l 697 -269 l 697 151 m 804 1151 l 804 732 l 1750 732 l 1815 667 l 1815 44 l 804 44 l 804 -429 l -58 424 l 739 1217 l 804 1151 z "},"J":{"ha":1476,"x_min":19,"x_max":1582,"o":"m 361 533 l 1076 -179 l 1457 200 l 743 915 l 1044 1217 l 61 1217 l 61 235 l 361 533 m 1143 -304 l 428 408 l 86 68 l 19 135 l 19 1258 l 1144 1258 l 1211 1192 l 868 849 l 1582 133 l 1143 -304 z "},"K":{"ha":1675,"x_min":60,"x_max":1713,"o":"m 1713 474 l 1232 474 l 1232 -536 l 610 -536 l 544 -471 l 544 474 l 125 474 l 60 539 l 854 1335 l 1713 474 m 1125 581 l 1547 581 l 854 1276 l 160 581 l 586 581 l 586 -429 l 1125 -429 l 1125 581 z "},"L":{"ha":1565,"x_min":3,"x_max":1563,"o":"m 1224 408 l 508 -304 l 3 200 l 717 915 l 374 1258 l 1497 1258 l 1563 1193 l 1563 69 l 1224 408 m 1157 533 l 1456 235 l 1456 1217 l 474 1217 l 775 915 l 61 200 l 442 -179 l 1157 533 z "},"M":{"ha":1806,"x_min":-42,"x_max":1833,"o":"m 1833 357 l 1036 -436 l 969 -369 l 969 44 l 24 44 l -42 110 l -42 732 l 969 732 l 969 1217 l 1833 357 m 1011 151 l 1011 -269 l 1708 424 l 1011 1117 l 1011 690 l 0 690 l 0 151 l 1011 151 z "},"N":{"ha":1769,"x_min":192,"x_max":1754,"o":"m 565 -221 l 907 121 l 192 835 l 631 1275 l 1346 560 l 1689 903 l 1754 838 l 1754 -286 l 631 -286 l 565 -221 m 965 121 l 665 -179 l 1647 -179 l 1647 803 l 1346 501 l 631 1217 l 250 835 l 965 121 z "},"O":{"ha":1600,"x_min":60,"x_max":1714,"o":"m 1125 265 l 1125 1276 l 586 1276 l 586 265 l 160 265 l 854 -429 l 1547 265 l 1125 265 m 1167 1318 l 1232 1253 l 1232 307 l 1647 307 l 1714 240 l 921 -554 l 60 307 l 544 307 l 544 1318 l 1167 1318 z "},"P":{"ha":1656,"x_min":208,"x_max":1774,"o":"m 935 121 l 1649 835 l 1268 1217 l 553 501 l 250 803 l 250 -179 l 1233 -179 l 935 121 m 1774 768 l 1060 54 l 1399 -286 l 274 -286 l 208 -221 l 208 903 l 553 560 l 1268 1275 l 1774 768 z "},"Q":{"ha":1525,"x_min":-79,"x_max":1596,"o":"m 615 1143 l -79 449 l 615 -244 l 615 178 l 663 178 l 663 717 l 615 717 l 615 1143 m 667 717 l 667 178 l 735 178 l 735 717 l 667 717 m 743 717 l 743 178 l 806 178 l 806 717 l 743 717 m 819 717 l 819 178 l 878 178 l 878 717 l 819 717 m 896 717 l 896 178 l 950 178 l 950 717 l 896 717 m 972 717 l 972 178 l 1021 178 l 1021 717 l 972 717 m 1049 717 l 1049 178 l 1093 178 l 1093 717 l 1049 717 m 1125 717 l 1125 178 l 1165 178 l 1165 717 l 1125 717 m 1201 717 l 1201 178 l 1236 178 l 1236 717 l 1201 717 m 1278 717 l 1278 178 l 1308 178 l 1308 717 l 1278 717 m 1354 717 l 1354 178 l 1381 178 l 1381 717 l 1354 717 m 1431 717 l 1431 178 l 1451 178 l 1451 717 l 1431 717 m 1507 717 l 1507 178 l 1524 178 l 1524 717 l 1507 717 m 1583 717 l 1583 178 l 1596 178 l 1596 717 l 1583 717 z "},"R":{"ha":1475,"x_min":207,"x_max":1581,"o":"m 1189 1135 l 207 1135 l 207 154 l 506 453 l 539 419 l 921 800 l 888 833 l 1189 1135 m 924 797 l 542 417 l 590 368 l 971 750 l 924 797 m 978 743 l 596 363 l 640 318 l 1021 699 l 978 743 m 1032 689 l 650 308 l 692 267 l 1072 649 l 1032 689 m 1085 636 l 704 254 l 743 217 l 1124 597 l 1085 636 m 1139 582 l 758 200 l 793 167 l 1174 547 l 1139 582 m 1193 528 l 813 146 l 843 115 l 1225 496 l 1193 528 m 1247 474 l 867 92 l 894 64 l 1276 444 l 1247 474 m 1301 419 l 921 39 l 944 14 l 1326 394 l 1301 419 m 1356 365 l 975 -15 l 996 -37 l 1376 344 l 1356 365 m 1410 311 l 1028 -69 l 1047 -89 l 1428 293 l 1410 311 m 1464 257 l 1082 -124 l 1097 -139 l 1478 243 l 1464 257 m 1518 203 l 1136 -178 l 1149 -189 l 1529 192 l 1518 203 m 1571 150 l 1190 -232 l 1199 -240 l 1581 140 l 1571 150 z "},"S":{"ha":1393,"x_min":106,"x_max":1493,"o":"m 1493 686 l 799 1381 l 106 686 l 528 686 l 528 639 l 1067 639 l 1067 686 l 1493 686 m 1067 635 l 528 635 l 528 567 l 1067 567 l 1067 635 m 1067 558 l 528 558 l 528 496 l 1067 496 l 1067 558 m 1067 482 l 528 482 l 528 424 l 1067 424 l 1067 482 m 1067 406 l 528 406 l 528 351 l 1067 351 l 1067 406 m 1067 329 l 528 329 l 528 281 l 1067 281 l 1067 329 m 1067 253 l 528 253 l 528 208 l 1067 208 l 1067 253 m 1067 176 l 528 176 l 528 136 l 1067 136 l 1067 176 m 1067 100 l 528 100 l 528 65 l 1067 65 l 1067 100 m 1067 24 l 528 24 l 528 -7 l 1067 -7 l 1067 24 m 1067 -53 l 528 -53 l 528 -79 l 1067 -79 l 1067 -53 m 1067 -129 l 528 -129 l 528 -150 l 1067 -150 l 1067 -129 m 1067 -206 l 528 -206 l 528 -222 l 1067 -222 l 1067 -206 m 1067 -282 l 528 -282 l 528 -294 l 1067 -294 l 1067 -282 z "},"T":{"ha":1486,"x_min":110,"x_max":1486,"o":"m 1486 114 l 1486 1096 l 504 1094 l 803 796 l 769 763 l 1151 382 l 1185 415 l 1486 114 m 1147 379 l 767 760 l 718 713 l 1100 331 l 1147 379 m 1094 325 l 713 706 l 668 661 l 1050 281 l 1094 325 m 1040 271 l 658 651 l 618 611 l 999 229 l 1040 271 m 986 217 l 604 599 l 567 560 l 947 179 l 986 217 m 932 163 l 550 544 l 517 510 l 897 129 l 932 163 m 878 108 l 497 490 l 465 458 l 846 78 l 878 108 m 824 56 l 443 436 l 414 407 l 796 26 l 824 56 m 769 1 l 389 382 l 364 357 l 744 -24 l 769 1 m 715 -53 l 335 328 l 313 307 l 694 -75 l 715 -53 m 661 -107 l 281 274 l 263 256 l 643 -126 l 661 -107 m 607 -161 l 226 219 l 213 206 l 593 -176 l 607 -161 m 554 -215 l 172 165 l 161 154 l 542 -226 l 554 -215 m 500 -269 l 118 113 l 110 103 l 490 -278 l 500 -269 z "},"U":{"ha":1617,"x_min":57,"x_max":1732,"o":"m 1038 -190 l 1732 504 l 1038 1197 l 1038 775 l 990 775 l 990 236 l 1038 236 l 1038 -190 m 986 236 l 986 775 l 918 775 l 918 236 l 986 236 m 910 236 l 910 775 l 847 775 l 847 236 l 910 236 m 833 236 l 833 775 l 775 775 l 775 236 l 833 236 m 757 236 l 757 775 l 703 775 l 703 236 l 757 236 m 681 236 l 681 775 l 632 775 l 632 236 l 681 236 m 604 236 l 604 775 l 560 775 l 560 236 l 604 236 m 528 236 l 528 775 l 488 775 l 488 236 l 528 236 m 451 236 l 451 775 l 417 775 l 417 236 l 451 236 m 375 236 l 375 775 l 344 775 l 344 236 l 375 236 m 299 236 l 299 775 l 272 775 l 272 236 l 299 236 m 222 236 l 222 775 l 201 775 l 201 236 l 222 236 m 146 236 l 146 775 l 129 775 l 129 236 l 146 236 m 69 236 l 69 775 l 57 775 l 57 236 l 69 236 z "},"V":{"ha":1456,"x_min":72,"x_max":1446,"o":"m 464 -183 l 1446 -183 l 1446 797 l 1147 499 l 1114 532 l 732 151 l 765 118 l 464 -183 m 729 154 l 1110 536 l 1063 583 l 681 203 l 729 154 m 675 208 l 1057 589 l 1013 633 l 631 253 l 675 208 m 621 263 l 1003 643 l 961 685 l 581 304 l 621 263 m 567 317 l 949 697 l 910 736 l 529 354 l 567 317 m 513 371 l 894 751 l 860 786 l 479 406 l 513 371 m 460 425 l 840 806 l 808 838 l 428 456 l 460 425 m 406 479 l 786 860 l 758 888 l 376 507 l 406 479 m 351 532 l 732 914 l 707 938 l 326 557 l 351 532 m 297 586 l 678 968 l 657 989 l 275 608 l 297 586 m 243 640 l 624 1022 l 606 1040 l 225 660 l 243 640 m 189 694 l 569 1075 l 556 1090 l 175 710 l 189 694 m 135 749 l 517 1129 l 504 1142 l 124 760 l 135 749 m 81 803 l 463 1183 l 453 1193 l 72 811 l 81 803 z "},"W":{"ha":1499,"x_min":160,"x_max":1547,"o":"m 160 265 l 854 -429 l 1547 265 l 1125 265 l 1125 313 l 586 313 l 586 265 l 160 265 m 586 317 l 1125 317 l 1125 385 l 586 385 l 586 317 m 586 393 l 1125 393 l 1125 456 l 586 456 l 586 393 m 586 469 l 1125 469 l 1125 528 l 586 528 l 586 469 m 586 546 l 1125 546 l 1125 600 l 586 600 l 586 546 m 586 622 l 1125 622 l 1125 671 l 586 671 l 586 622 m 586 699 l 1125 699 l 1125 743 l 586 743 l 586 699 m 586 775 l 1125 775 l 1125 815 l 586 815 l 586 775 m 586 851 l 1125 851 l 1125 886 l 586 886 l 586 851 m 586 928 l 1125 928 l 1125 958 l 586 958 l 586 928 m 586 1004 l 1125 1004 l 1125 1031 l 586 1031 l 586 1004 m 586 1081 l 1125 1081 l 1125 1101 l 586 1101 l 586 1081 m 586 1157 l 1125 1157 l 1125 1174 l 586 1174 l 586 1157 m 586 1233 l 1125 1233 l 1125 1246 l 586 1246 l 586 1233 z "},"X":{"ha":1440,"x_min":167,"x_max":1543,"o":"m 167 838 l 167 -144 l 1149 -143 l 850 156 l 883 189 l 501 569 l 468 536 l 167 838 m 504 574 l 886 192 l 933 240 l 553 621 l 504 574 m 558 626 l 940 246 l 983 290 l 603 671 l 558 626 m 613 681 l 994 300 l 1035 342 l 654 722 l 613 681 m 667 735 l 1047 354 l 1086 392 l 706 774 l 667 735 m 721 789 l 1101 408 l 1136 443 l 756 824 l 721 789 m 775 843 l 1156 463 l 1188 493 l 806 875 l 775 843 m 829 897 l 1210 517 l 1239 544 l 857 925 l 829 897 m 883 951 l 1264 569 l 1289 594 l 907 975 l 883 951 m 938 1006 l 1318 624 l 1339 646 l 958 1026 l 938 1006 m 990 1060 l 1372 678 l 1390 697 l 1010 1078 l 990 1060 m 1044 1113 l 1426 732 l 1440 747 l 1060 1128 l 1044 1113 m 1099 1167 l 1481 786 l 1492 797 l 1111 1179 l 1099 1167 m 1153 1221 l 1533 840 l 1543 849 l 1161 1231 l 1153 1221 z "},"Y":{"ha":63,"x_min":0,"x_max":0,"o":""},"Z":{"ha":63,"x_min":0,"x_max":0,"o":""},"[":{"ha":63,"x_min":0,"x_max":0,"o":""},"\\":{"ha":63,"x_min":0,"x_max":0,"o":""},"]":{"ha":63,"x_min":0,"x_max":0,"o":""},"^":{"ha":63,"x_min":0,"x_max":0,"o":""},"_":{"ha":63,"x_min":0,"x_max":0,"o":""},"`":{"ha":63,"x_min":0,"x_max":0,"o":""},"a":{"ha":1651,"x_min":-36,"x_max":1708,"o":"m 1621 218 l 1621 690 l 714 690 l 714 1064 l 88 457 l 714 -151 l 714 218 l 1621 218 m 763 169 l 763 -268 l 18 457 l 763 1182 l 763 739 l 1671 739 l 1671 169 l 763 169 m 1708 133 l 1708 776 l 800 776 l 800 1269 l -36 457 l 800 -356 l 800 133 l 1708 133 z "},"b":{"ha":1386,"x_min":54,"x_max":1485,"o":"m 1031 -72 l 1364 261 l 738 889 l 1001 1153 l 139 1153 l 139 292 l 403 553 l 1031 -72 m 403 485 l 90 175 l 90 1201 l 1119 1201 l 806 889 l 1432 261 l 1031 -140 l 403 485 m 1031 -193 l 1485 261 l 857 889 l 1207 1239 l 54 1239 l 54 86 l 403 433 l 1031 -193 z "},"c":{"ha":1604,"x_min":19,"x_max":1649,"o":"m 1157 521 l 1157 -385 l 514 -385 l 514 521 l 19 521 l 835 1357 l 1649 521 l 1157 521 m 1560 558 l 835 1303 l 108 558 l 550 558 l 550 -347 l 1121 -347 l 1121 558 l 1560 558 m 1072 -299 l 600 -299 l 600 608 l 225 608 l 835 1233 l 1442 608 l 1072 608 l 1072 -299 z "},"d":{"ha":1453,"x_min":18,"x_max":1449,"o":"m 1100 433 l 474 -193 l 18 261 l 644 889 l 296 1239 l 1449 1239 l 1449 86 l 1100 433 m 1411 175 l 1411 1201 l 383 1201 l 697 889 l 71 261 l 474 -140 l 1100 485 l 1411 175 m 474 -72 l 139 261 l 765 889 l 501 1153 l 1363 1153 l 1363 292 l 1100 553 l 474 -72 z "},"e":{"ha":1628,"x_min":0,"x_max":1744,"o":"m 908 -356 l 908 133 l 0 133 l 0 776 l 908 776 l 908 1269 l 1744 457 l 908 -356 m 1690 457 l 946 1182 l 946 739 l 38 739 l 38 169 l 946 169 l 946 -268 l 1690 457 m 88 218 l 88 690 l 994 690 l 994 1064 l 1621 457 l 994 -151 l 994 218 l 88 218 z "},"f":{"ha":1646,"x_min":185,"x_max":1617,"o":"m 464 -157 l 813 190 l 185 818 l 638 1274 l 1267 644 l 1617 994 l 1617 -157 l 464 -157 m 1581 -121 l 1581 907 l 1267 593 l 639 1221 l 236 818 l 864 192 l 553 -121 l 1581 -121 m 304 818 l 639 1153 l 1267 525 l 1532 790 l 1532 -72 l 669 -72 l 933 192 l 304 818 z "},"g":{"ha":1613,"x_min":21,"x_max":1649,"o":"m 1072 1233 l 600 1233 l 600 325 l 225 325 l 835 -299 l 1442 325 l 1072 325 l 1072 1233 m 1121 375 l 1560 375 l 835 -368 l 108 375 l 550 375 l 550 1283 l 1121 1283 l 1121 375 m 1157 1321 l 514 1321 l 514 413 l 21 413 l 836 -421 l 1649 413 l 1157 413 l 1157 1321 z "},"h":{"ha":1543,"x_min":219,"x_max":1653,"o":"m 1533 818 l 1199 1153 l 571 525 l 304 790 l 304 -72 l 1168 -72 l 906 192 l 1533 818 m 974 192 l 1285 -121 l 256 -121 l 256 907 l 571 593 l 1199 1221 l 1601 818 l 974 192 m 1653 818 l 1200 1274 l 571 644 l 219 994 l 219 -157 l 1374 -157 l 1025 192 l 1653 818 z "},"i":{"ha":1411,"x_min":0,"x_max":1431,"o":"m 1431 151 l 697 290 l 836 -132 l 0 424 l 836 978 l 697 551 l 1431 690 l 1431 151 z "},"j":{"ha":1265,"x_min":156,"x_max":1356,"o":"m 974 -140 l 554 476 l 353 81 l 156 1064 l 1138 865 l 739 661 l 1356 242 l 974 -140 z "},"k":{"ha":1203,"x_min":106,"x_max":1215,"o":"m 389 -157 l 528 576 l 106 438 l 661 1274 l 1215 438 l 789 576 l 928 -157 l 389 -157 z "},"l":{"ha":1183,"x_min":57,"x_max":1261,"o":"m 57 204 l 674 625 l 278 825 l 1261 1024 l 1063 40 l 858 440 l 439 -176 l 57 204 z "},"m":{"ha":1449,"x_min":40,"x_max":1471,"o":"m 40 789 l 774 650 l 635 1072 l 1471 517 l 635 -37 l 774 389 l 40 250 l 40 789 z "},"n":{"ha":1171,"x_min":21,"x_max":1221,"o":"m 401 1121 l 822 504 l 1022 901 l 1221 -83 l 238 117 l 638 319 l 21 740 l 401 1121 z "},"o":{"ha":1264,"x_min":161,"x_max":1271,"o":"m 988 1139 l 849 406 l 1271 544 l 715 -293 l 161 544 l 588 406 l 449 1139 l 988 1139 z "},"p":{"ha":1319,"x_min":208,"x_max":1413,"o":"m 1413 736 l 796 317 l 1193 117 l 208 -82 l 408 901 l 611 501 l 1032 1118 l 1413 736 z "},"q":{"ha":1626,"x_min":0,"x_max":1708,"o":"m 1708 290 l 697 151 l 836 -271 l 0 424 l 836 1117 l 697 690 l 1708 551 l 1708 290 z "},"r":{"ha":1464,"x_min":271,"x_max":1568,"o":"m 1383 -229 l 571 388 l 371 -8 l 271 1074 l 1351 972 l 951 769 l 1568 -44 l 1383 -229 z "},"s":{"ha":1463,"x_min":181,"x_max":1568,"o":"m 742 -385 l 603 626 l 181 488 l 875 1324 l 1568 488 l 1142 626 l 1003 -385 l 742 -385 z "},"t":{"ha":1522,"x_min":222,"x_max":1524,"o":"m 222 -61 l 839 753 l 442 953 l 1524 1053 l 1424 -29 l 1219 371 l 407 -246 l 222 -61 z "},"u":{"ha":1656,"x_min":65,"x_max":1774,"o":"m 65 582 l 1076 721 l 938 1143 l 1774 449 l 938 -244 l 1076 182 l 65 321 l 65 582 z "},"v":{"ha":1468,"x_min":206,"x_max":1504,"o":"m 390 1101 l 1203 485 l 1403 881 l 1504 -201 l 422 -100 l 822 103 l 206 917 l 390 1101 z "},"w":{"ha":1547,"x_min":207,"x_max":1594,"o":"m 1033 1257 l 1172 246 l 1594 385 l 900 -451 l 207 385 l 633 246 l 772 1257 l 1033 1257 z "},"x":{"ha":1449,"x_min":250,"x_max":1551,"o":"m 1551 933 l 935 119 l 1332 -81 l 250 -181 l 351 901 l 554 501 l 1367 1118 l 1551 933 z "},"y":{"ha":63,"x_min":0,"x_max":0,"o":""},"z":{"ha":63,"x_min":0,"x_max":0,"o":""},"":{"ha":586,"x_min":0,"x_max":0,"o":""},"":{"ha":586,"x_min":0,"x_max":0,"o":""}}}
